<svg xmlns="http://www.w3.org/2000/svg" xmlns:xlink="http://www.w3.org/1999/xlink" width="500" zoomAndPan="magnify" viewBox="0 0 375 374.999991" height="500" preserveAspectRatio="xMidYMid meet" version="1.0"><defs><g/><clipPath id="ff53b12b0d"><path d="M 114 158 L 262 158 L 262 178.65625 L 114 178.65625 Z M 114 158 " clip-rule="nonzero"/></clipPath><clipPath id="2cc27646e8"><path d="M 81.683594 67.535156 L 293.828125 67.535156 L 293.828125 165 L 81.683594 165 Z M 81.683594 67.535156 " clip-rule="nonzero"/></clipPath><clipPath id="e88c7ba162"><path d="M 28.296875 151.492188 L 64.664062 151.492188 L 64.664062 179.777344 L 28.296875 179.777344 Z M 28.296875 151.492188 " clip-rule="nonzero"/></clipPath><clipPath id="b0a43e2aa6"><path d="M 293.316406 160.792969 L 317.5625 160.792969 L 317.5625 178.976562 L 293.316406 178.976562 Z M 293.316406 160.792969 " clip-rule="nonzero"/></clipPath></defs><g clip-path="url(#ff53b12b0d)"><path fill="#000000" d="M 187.769531 158.195312 C 187.765625 158.195312 187.761719 158.195312 187.753906 158.195312 C 187.75 158.195312 187.746094 158.195312 187.742188 158.195312 C 187.71875 158.195312 187.695312 158.195312 187.671875 158.195312 C 149.402344 158.195312 123.078125 163.59375 114.421875 168.429688 C 123.089844 173.238281 149.382812 178.617188 187.621094 178.660156 L 187.890625 178.660156 C 226.128906 178.617188 252.417969 173.238281 261.089844 168.429688 C 252.429688 163.59375 226.109375 158.195312 187.839844 158.195312 C 187.816406 158.195312 187.792969 158.195312 187.769531 158.195312 " fill-opacity="1" fill-rule="nonzero"/></g><g clip-path="url(#2cc27646e8)"><path fill="#000000" d="M 283.261719 109.917969 C 281.34375 111.515625 281.625 112.8125 281.09375 114.257812 C 280.800781 115.050781 280.46875 116.085938 279.03125 117.339844 C 279.03125 117.339844 260.5 136.355469 248.089844 132.285156 C 229.699219 126.25 239.792969 102.804688 239.792969 102.804688 L 241.6875 98.691406 C 242.632812 96.640625 245.449219 95.792969 246.589844 95.105469 C 248.667969 93.851562 249.355469 94.28125 250.585938 91.613281 C 252.578125 87.285156 250.714844 79.652344 250.109375 78.050781 C 248.34375 78.964844 241.035156 82.96875 239.042969 87.292969 C 237.8125 89.964844 239.347656 91.519531 239.917969 93.539062 C 240.226562 94.648438 240.714844 96.085938 239.773438 98.132812 L 237.878906 102.246094 C 237.878906 102.246094 226.558594 124.777344 209.667969 124.925781 C 189.035156 125.109375 188.960938 91.835938 188.960938 91.835938 C 188.960938 89.390625 190.238281 88.03125 191.152344 86.957031 C 192.816406 85.003906 195.316406 83.835938 195.316406 80.648438 C 195.316406 75.617188 189.566406 69.382812 187.890625 67.671875 L 187.890625 67.640625 C 187.855469 67.605469 187.816406 67.5625 187.785156 67.53125 C 187.78125 67.535156 187.773438 67.542969 187.769531 67.546875 C 187.765625 67.542969 187.761719 67.539062 187.753906 67.53125 C 187.75 67.539062 187.746094 67.542969 187.742188 67.546875 C 187.734375 67.542969 187.730469 67.535156 187.726562 67.53125 C 187.695312 67.5625 187.652344 67.605469 187.621094 67.640625 L 187.621094 67.671875 C 185.945312 69.382812 180.195312 75.617188 180.195312 80.648438 C 180.195312 83.835938 182.695312 85.003906 184.359375 86.957031 C 185.273438 88.03125 186.550781 89.390625 186.550781 91.835938 C 186.550781 91.835938 186.476562 125.109375 165.839844 124.925781 C 148.953125 124.777344 137.632812 102.246094 137.632812 102.246094 L 135.738281 98.132812 C 134.792969 96.085938 135.28125 94.648438 135.59375 93.539062 C 136.164062 91.519531 137.695312 89.964844 136.464844 87.292969 C 134.472656 82.96875 127.164062 78.964844 125.398438 78.050781 C 124.796875 79.652344 122.929688 87.285156 124.925781 91.613281 C 126.15625 94.28125 126.84375 93.851562 128.917969 95.105469 C 130.058594 95.792969 132.878906 96.640625 133.824219 98.691406 L 135.71875 102.804688 C 135.71875 102.804688 145.808594 126.25 127.421875 132.285156 C 115.011719 136.355469 96.476562 117.339844 96.476562 117.339844 C 95.039062 116.085938 94.710938 115.050781 94.417969 114.257812 C 93.886719 112.8125 94.167969 111.515625 92.246094 109.917969 C 88.9375 107.164062 82.984375 105.523438 81.75 105.234375 C 82.085938 106.402344 84.640625 112.023438 87.675781 114.664062 C 89.546875 116.292969 91.308594 115.746094 92.882812 116.707031 C 110.484375 127.429688 111.882812 164.824219 111.882812 164.824219 L 112.035156 164.824219 C 114.484375 159.113281 147.386719 153.320312 187.640625 153.316406 C 187.660156 153.316406 187.851562 153.316406 187.867188 153.316406 C 228.125 153.320312 261.027344 159.113281 263.472656 164.824219 L 263.625 164.824219 C 263.625 164.824219 265.027344 127.429688 282.625 116.707031 C 284.199219 115.746094 285.960938 116.292969 287.835938 114.664062 C 290.871094 112.023438 293.425781 106.402344 293.761719 105.234375 C 292.523438 105.523438 286.574219 107.164062 283.261719 109.917969 " fill-opacity="1" fill-rule="nonzero"/></g><g clip-path="url(#e88c7ba162)"><path fill="#000000" d="M 28.296875 166.90625 L 29.523438 166.90625 L 28.296875 166.871094 C 40.34375 166.351562 40.433594 166.261719 40.941406 154.007812 L 40.976562 154.578125 L 40.976562 154.007812 C 41.003906 154.609375 41.027344 155.183594 41.050781 155.730469 L 41.3125 159.792969 C 41.796875 164.671875 42.996094 165.976562 47.660156 166.5 L 52.070312 166.800781 C 52.5625 166.824219 53.082031 166.84375 53.621094 166.871094 L 53.078125 166.871094 L 53.621094 166.90625 C 41.574219 167.425781 41.488281 167.515625 40.976562 179.765625 L 40.941406 179.207031 L 40.941406 179.765625 C 40.917969 179.191406 40.894531 178.648438 40.871094 178.125 L 40.59375 173.839844 C 39.933594 167.464844 37.96875 167.320312 28.296875 166.90625 Z M 48.441406 159.78125 L 49.226562 159.78125 L 48.441406 159.757812 C 56.160156 159.425781 56.214844 159.371094 56.542969 151.519531 L 56.566406 151.882812 L 56.566406 151.519531 C 56.582031 151.90625 56.597656 152.273438 56.613281 152.621094 L 56.777344 155.226562 C 57.089844 158.351562 57.859375 159.1875 60.847656 159.523438 L 63.671875 159.714844 C 63.988281 159.730469 64.316406 159.742188 64.664062 159.757812 L 64.316406 159.757812 L 64.664062 159.78125 C 56.949219 160.113281 56.890625 160.171875 56.566406 168.023438 L 56.542969 167.664062 L 56.542969 168.023438 C 56.527344 167.652344 56.511719 167.304688 56.496094 166.972656 L 56.320312 164.222656 C 55.894531 160.136719 54.636719 160.046875 48.441406 159.78125 Z M 48.1875 174.253906 L 48.710938 174.253906 L 48.1875 174.238281 C 53.351562 174.015625 53.386719 173.976562 53.605469 168.722656 L 53.621094 168.96875 L 53.621094 168.722656 C 53.632812 168.984375 53.640625 169.226562 53.652344 169.460938 L 53.765625 171.203125 C 53.972656 173.296875 54.488281 173.855469 56.488281 174.078125 L 58.378906 174.207031 C 58.589844 174.21875 58.808594 174.226562 59.042969 174.238281 L 58.808594 174.238281 L 59.042969 174.253906 C 53.878906 174.476562 53.839844 174.511719 53.621094 179.765625 L 53.605469 179.527344 L 53.605469 179.765625 C 53.59375 179.519531 53.585938 179.289062 53.578125 179.0625 L 53.457031 177.226562 C 53.171875 174.492188 52.332031 174.433594 48.1875 174.253906 Z M 48.1875 174.253906 " fill-opacity="1" fill-rule="evenodd"/></g><g clip-path="url(#b0a43e2aa6)"><path fill="#000000" d="M 293.316406 170.699219 L 294.132812 170.699219 L 293.316406 170.675781 C 301.347656 170.34375 301.40625 170.285156 301.746094 162.410156 L 301.769531 162.777344 L 301.769531 162.410156 C 301.785156 162.796875 301.800781 163.167969 301.820312 163.519531 L 301.992188 166.128906 C 302.316406 169.265625 303.117188 170.105469 306.226562 170.441406 L 309.164062 170.632812 C 309.492188 170.648438 309.835938 170.660156 310.199219 170.675781 L 309.835938 170.675781 L 310.199219 170.699219 C 302.167969 171.035156 302.109375 171.09375 301.769531 178.964844 L 301.746094 178.605469 L 301.746094 178.964844 C 301.730469 178.597656 301.714844 178.246094 301.699219 177.910156 L 301.511719 175.15625 C 301.070312 171.058594 299.761719 170.96875 293.316406 170.699219 Z M 306.746094 166.121094 L 307.269531 166.121094 L 306.746094 166.105469 C 311.890625 165.894531 311.929688 165.855469 312.144531 160.8125 L 312.160156 161.046875 L 312.160156 160.8125 C 312.171875 161.0625 312.183594 161.296875 312.191406 161.519531 L 312.304688 163.195312 C 312.511719 165.203125 313.023438 165.742188 315.015625 165.957031 L 316.898438 166.078125 C 317.109375 166.089844 317.328125 166.097656 317.5625 166.105469 L 317.328125 166.105469 L 317.5625 166.121094 C 312.417969 166.335938 312.378906 166.371094 312.160156 171.417969 L 312.144531 171.1875 L 312.144531 171.417969 C 312.136719 171.179688 312.125 170.957031 312.117188 170.742188 L 311.996094 168.976562 C 311.714844 166.351562 310.875 166.292969 306.746094 166.121094 Z M 306.574219 175.421875 L 306.925781 175.421875 L 306.574219 175.414062 C 310.015625 175.269531 310.042969 175.246094 310.1875 171.871094 L 310.199219 172.027344 L 310.199219 171.871094 C 310.207031 172.035156 310.210938 172.191406 310.21875 172.34375 L 310.292969 173.464844 C 310.433594 174.808594 310.777344 175.167969 312.109375 175.3125 L 313.371094 175.394531 C 313.511719 175.398438 313.65625 175.40625 313.8125 175.414062 L 313.65625 175.414062 L 313.8125 175.421875 C 310.371094 175.566406 310.34375 175.589844 310.199219 178.964844 L 310.1875 178.8125 L 310.1875 178.964844 C 310.179688 178.808594 310.175781 178.660156 310.167969 178.515625 L 310.089844 177.335938 C 309.898438 175.578125 309.339844 175.539062 306.574219 175.421875 Z M 306.574219 175.421875 " fill-opacity="1" fill-rule="evenodd"/></g><g fill="#000000" fill-opacity="1"><g transform="translate(28.298059, 267.731305)"><g><path d="M 5.0625 -4.953125 L 7 -21.125 C 9.945312 -19.039062 12.875 -17.546875 15.78125 -16.640625 C 18.695312 -15.742188 21.335938 -15.222656 23.703125 -15.078125 C 26.078125 -14.941406 27.835938 -14.910156 28.984375 -14.984375 C 31.285156 -15.117188 33.242188 -15.921875 34.859375 -17.390625 C 36.472656 -18.867188 37.171875 -20.648438 36.953125 -22.734375 C 36.816406 -24.960938 35.992188 -26.648438 34.484375 -27.796875 C 32.972656 -28.953125 31.140625 -29.882812 28.984375 -30.59375 C 24.960938 -32.101562 21.207031 -33.847656 17.71875 -35.828125 C 14.238281 -37.804688 11.4375 -40.265625 9.3125 -43.203125 C 7.195312 -46.148438 6.140625 -49.78125 6.140625 -54.09375 C 6.140625 -58.40625 7.054688 -62.300781 8.890625 -65.78125 C 10.722656 -69.257812 13.289062 -72.039062 16.59375 -74.125 C 19.894531 -76.207031 23.664062 -77.359375 27.90625 -77.578125 C 29.914062 -77.722656 32.375 -77.648438 35.28125 -77.359375 C 38.195312 -77.078125 42.132812 -76.070312 47.09375 -74.34375 L 45.140625 -59.484375 C 40.910156 -61.203125 37.535156 -62.1875 35.015625 -62.4375 C 32.503906 -62.6875 30.640625 -62.773438 29.421875 -62.703125 C 26.691406 -62.566406 24.695312 -61.632812 23.4375 -59.90625 C 22.175781 -58.1875 21.617188 -56.25 21.765625 -54.09375 C 21.984375 -51.9375 22.914062 -50.300781 24.5625 -49.1875 C 26.21875 -48.070312 28.160156 -47.117188 30.390625 -46.328125 C 34.410156 -44.890625 38.109375 -43.109375 41.484375 -40.984375 C 44.859375 -38.867188 47.566406 -36.320312 49.609375 -33.34375 C 51.660156 -30.363281 52.6875 -26.828125 52.6875 -22.734375 C 52.6875 -18.492188 51.753906 -14.648438 49.890625 -11.203125 C 48.023438 -7.753906 45.347656 -4.988281 41.859375 -2.90625 C 38.378906 -0.820312 34.234375 0.359375 29.421875 0.640625 C 27.984375 0.710938 26.023438 0.660156 23.546875 0.484375 C 21.066406 0.304688 18.242188 -0.191406 15.078125 -1.015625 C 11.921875 -1.847656 8.582031 -3.160156 5.0625 -4.953125 Z M 5.0625 -4.953125 "/></g></g></g><g fill="#000000" fill-opacity="1"><g transform="translate(85.294865, 267.731305)"><g><path d="M 24.03125 0 L 8.625 0 L 8.625 -76.9375 L 38.890625 -76.9375 C 43.203125 -76.9375 46.882812 -76.070312 49.9375 -74.34375 C 52.988281 -72.625 55.410156 -70.363281 57.203125 -67.5625 C 59.003906 -64.757812 60.207031 -61.648438 60.8125 -58.234375 C 61.425781 -54.828125 61.425781 -51.4375 60.8125 -48.0625 C 60.207031 -44.6875 58.988281 -41.597656 57.15625 -38.796875 C 55.320312 -35.992188 52.878906 -33.726562 49.828125 -32 C 46.773438 -30.28125 43.128906 -29.421875 38.890625 -29.421875 L 24.03125 -29.421875 Z M 24.03125 -44.390625 L 37.609375 -44.390625 C 39.691406 -44.390625 41.34375 -44.960938 42.5625 -46.109375 C 43.78125 -47.265625 44.601562 -48.703125 45.03125 -50.421875 C 45.46875 -52.148438 45.46875 -53.875 45.03125 -55.59375 C 44.601562 -57.320312 43.78125 -58.757812 42.5625 -59.90625 C 41.34375 -61.0625 39.691406 -61.640625 37.609375 -61.640625 L 24.03125 -61.640625 Z M 24.03125 -44.390625 "/></g></g></g><g fill="#000000" fill-opacity="1"><g transform="translate(145.200572, 267.731305)"><g><path d="M 1.71875 0 L 34.15625 -79.84375 L 35.765625 -79.84375 L 68.203125 0 L 50.859375 0 L 47.734375 -8.296875 L 22.203125 -8.296875 L 19.171875 0 Z M 27.796875 -22.734375 L 42.015625 -22.734375 L 35.015625 -42.78125 Z M 27.796875 -22.734375 "/></g></g></g><g fill="#000000" fill-opacity="1"><g transform="translate(215.55771, 267.731305)"><g><path d="M 46.984375 0 L 31.46875 -29.421875 L 24.03125 -29.421875 L 24.03125 0 L 8.625 0 L 8.625 -77.046875 L 39 -77.046875 C 43.601562 -77.046875 47.5 -76.09375 50.6875 -74.1875 C 53.882812 -72.28125 56.378906 -69.800781 58.171875 -66.75 C 59.972656 -63.695312 61.085938 -60.390625 61.515625 -56.828125 C 61.953125 -53.273438 61.6875 -49.789062 60.71875 -46.375 C 59.75 -42.96875 58.097656 -39.953125 55.765625 -37.328125 C 53.429688 -34.710938 50.359375 -32.863281 46.546875 -31.78125 L 64.4375 0 Z M 24.03125 -44.390625 L 37.609375 -44.390625 C 39.691406 -44.390625 41.359375 -44.960938 42.609375 -46.109375 C 43.867188 -47.265625 44.710938 -48.703125 45.140625 -50.421875 C 45.578125 -52.148438 45.578125 -53.875 45.140625 -55.59375 C 44.710938 -57.320312 43.867188 -58.757812 42.609375 -59.90625 C 41.359375 -61.0625 39.691406 -61.640625 37.609375 -61.640625 L 24.03125 -61.640625 Z M 24.03125 -44.390625 "/></g></g></g><g fill="#000000" fill-opacity="1"><g transform="translate(281.605076, 267.731305)"><g><path d="M 8.625 0 L 8.625 -77.046875 L 24.03125 -77.046875 L 24.03125 -46.328125 L 43.421875 -77.046875 L 61.421875 -77.046875 L 36.421875 -39 L 63.578125 0 L 44.5 0 L 24.03125 -30.171875 L 24.03125 0 Z M 8.625 0 "/></g></g></g></svg>