<svg width="200" height="60" viewBox="0 0 200 60" fill="none" xmlns="http://www.w3.org/2000/svg">
  <path d="M25 10C18.3726 10 13 15.3726 13 22C13 28.6274 18.3726 34 25 34C25.6991 34 26.3841 33.9351 27.0502 33.8099C28.364 39.0004 33.0446 42.8184 38.6342 42.9953L38.5363 42.5521C38.2132 38.2295 41.3526 34.491 45.6752 34.1679C50.1029 33.8377 53.8892 37.109 54.0927 41.5L54.5359 41.3842C51.3302 36.181 44.8822 33.7505 38.7985 35.7383C36.3634 31.7723 31.0667 29.4903 25.822 30.4377C23.5962 31.5016 22.0932 33.7115 22.0038 36.2724C21.9585 37.4544 22.2372 38.5963 22.7822 39.6019C20.0062 38.2843 18 35.5728 18 32.5C18 28.3579 21.3579 25 25.5 25C27.0345 25 28.4626 25.4546 29.6641 26.243C31.7935 21.0448 37.6454 18.5077 42.8436 20.637C43.1237 20.7529 43.3982 20.8801 43.6671 21.018C41.9454 15.6605 36.1848 12.3591 30.7033 13.7919C28.9372 12.0598 26.5855 11 25 11" fill="#6C3DF4"/>
  <path d="M65.7539 23.0234H70.9961V41H74.9805V23.0234H80.2227V19.5938H65.7539V23.0234ZM85.9219 41H95.625V37.5703H89.9062V32.1328H94.9414V28.7031H89.9062V23.0234H95.625V19.5938H85.9219V41ZM99.8242 41H110.664V37.5703H103.809V19.5938H99.8242V41ZM121.602 41.4922C126.016 41.4922 129.406 38.3906 129.406 34.3672C129.406 30.8398 127.031 28.6797 124.117 28.1289C126.953 27.5781 128.926 25.4922 128.926 22.2461C128.926 18.5742 125.742 15.8438 121.602 15.8438C117.461 15.8438 114.258 18.5742 114.258 22.2461C114.258 25.4922 116.23 27.5781 119.066 28.1289C116.152 28.6797 113.777 30.8398 113.777 34.3672C113.777 38.3906 117.168 41.4922 121.602 41.4922ZM121.602 31.6875C124.016 31.6875 125.512 32.8359 125.512 34.7578C125.512 36.6797 124.016 37.8281 121.602 37.8281C119.145 37.8281 117.672 36.6797 117.672 34.7578C117.672 32.8359 119.145 31.6875 121.602 31.6875ZM121.602 19.5078C123.773 19.5078 125.07 20.5859 125.07 22.2656C125.07 23.9414 123.773 25.0195 121.602 25.0195C119.41 25.0195 118.113 23.9414 118.113 22.2656C118.113 20.5859 119.41 19.5078 121.602 19.5078ZM133.496 41H144.336V37.5703H137.48V19.5938H133.496V41ZM155.801 41.4922C160.215 41.4922 163.605 38.3906 163.605 34.3672C163.605 30.8398 161.23 28.6797 158.316 28.1289C161.152 27.5781 163.125 25.4922 163.125 22.2461C163.125 18.5742 159.941 15.8438 155.801 15.8438C151.66 15.8438 148.457 18.5742 148.457 22.2461C148.457 25.4922 150.43 27.5781 153.266 28.1289C150.352 28.6797 147.977 30.8398 147.977 34.3672C147.977 38.3906 151.367 41.4922 155.801 41.4922ZM155.801 31.6875C158.215 31.6875 159.711 32.8359 159.711 34.7578C159.711 36.6797 158.215 37.8281 155.801 37.8281C153.344 37.8281 151.871 36.6797 151.871 34.7578C151.871 32.8359 153.344 31.6875 155.801 31.6875ZM155.801 19.5078C157.973 19.5078 159.27 20.5859 159.27 22.2656C159.27 23.9414 157.973 25.0195 155.801 25.0195C153.609 25.0195 152.312 23.9414 152.312 22.2656C152.312 20.5859 153.609 19.5078 155.801 19.5078ZM167.344 19.5938L167.363 41H171.27V25.8438L176.719 34.9062H176.777L182.129 25.8633V41H186.113V19.5938H181.934L176.777 28.8164L171.523 19.5938H167.344ZM69.7656 56.4922C73.75 56.4922 76.9375 53.3516 76.9375 49.3672C76.9375 45.3828 73.75 42.2422 69.7656 42.2422C65.7812 42.2422 62.5938 45.3828 62.5938 49.3672C62.5938 53.3516 65.7812 56.4922 69.7656 56.4922ZM69.7656 52.8281C67.8438 52.8281 66.5078 51.4141 66.5078 49.3672C66.5078 47.3203 67.8438 45.9062 69.7656 45.9062C71.6875 45.9062 73.0234 47.3203 73.0234 49.3672C73.0234 51.4141 71.6875 52.8281 69.7656 52.8281ZM78.3398 56H89.043V52.5703H82.3242V34.5938H78.3398V56Z" fill="#6C3DF4"/>
</svg>